<mxfile host="app.diagrams.net" agent="Mozilla/5.0 (Windows NT 10.0; Win64; x64) AppleWebKit/537.36 (KHTML, like Gecko) Chrome/137.0.0.0 Safari/537.36" version="27.1.4">
  <diagram name="Page-1" id="D-yEdtnxK7GjxKw282s_">
    <mxGraphModel dx="1901" dy="1097" grid="1" gridSize="10" guides="1" tooltips="1" connect="1" arrows="1" fold="1" page="1" pageScale="1" pageWidth="850" pageHeight="1100" math="0" shadow="0">
      <root>
        <mxCell id="0" />
        <mxCell id="1" parent="0" />
        <mxCell id="L-vQSVIaqBLPZGwuaetk-1" value="" style="rounded=0;whiteSpace=wrap;html=1;dashed=1;" vertex="1" parent="1">
          <mxGeometry x="40" y="140" width="160" height="440" as="geometry" />
        </mxCell>
        <mxCell id="L-vQSVIaqBLPZGwuaetk-2" value="&lt;font style=&quot;font-size: 24px;&quot;&gt;Sources&lt;/font&gt;" style="rounded=0;whiteSpace=wrap;html=1;strokeColor=none;" vertex="1" parent="1">
          <mxGeometry x="65" y="110" width="110" height="50" as="geometry" />
        </mxCell>
        <mxCell id="L-vQSVIaqBLPZGwuaetk-5" value="&lt;span style=&quot;font-size: 32px;&quot;&gt;&lt;b&gt;Data Flow Diagram&lt;/b&gt;&lt;/span&gt;" style="text;html=1;align=center;verticalAlign=middle;whiteSpace=wrap;rounded=0;" vertex="1" parent="1">
          <mxGeometry x="40" y="40" width="300" height="30" as="geometry" />
        </mxCell>
        <mxCell id="L-vQSVIaqBLPZGwuaetk-3" value="CRM" style="image;aspect=fixed;html=1;points=[];align=center;fontSize=12;image=img/lib/azure2/general/Folder_Blank.svg;" vertex="1" parent="1">
          <mxGeometry x="80" y="279" width="69" height="56.00000000000001" as="geometry" />
        </mxCell>
        <mxCell id="L-vQSVIaqBLPZGwuaetk-19" value="" style="rounded=0;whiteSpace=wrap;html=1;fillStyle=hatch;fillColor=#ffe6cc;strokeColor=default;opacity=80;dashed=1;" vertex="1" parent="1">
          <mxGeometry x="270" y="220" width="200" height="360" as="geometry" />
        </mxCell>
        <mxCell id="L-vQSVIaqBLPZGwuaetk-7" value="&lt;b&gt;&lt;font style=&quot;font-size: 20px;&quot;&gt;Bronze Layer&lt;/font&gt;&lt;/b&gt;" style="rounded=1;whiteSpace=wrap;html=1;fillColor=#ffe6cc;strokeColor=#d79b00;" vertex="1" parent="1">
          <mxGeometry x="270" y="140" width="200" height="70" as="geometry" />
        </mxCell>
        <mxCell id="L-vQSVIaqBLPZGwuaetk-10" value="&lt;font style=&quot;font-size: 16px;&quot;&gt;crm_cust_info&lt;/font&gt;" style="rounded=1;whiteSpace=wrap;html=1;fillColor=#ffe6cc;strokeColor=#d79b00;" vertex="1" parent="1">
          <mxGeometry x="280" y="290" width="180" height="34" as="geometry" />
        </mxCell>
        <mxCell id="L-vQSVIaqBLPZGwuaetk-11" value="&lt;font style=&quot;font-size: 16px;&quot;&gt;crm_prd_info&lt;/font&gt;" style="rounded=1;whiteSpace=wrap;html=1;fillColor=#ffe6cc;strokeColor=#d79b00;" vertex="1" parent="1">
          <mxGeometry x="280" y="335" width="180" height="34" as="geometry" />
        </mxCell>
        <mxCell id="L-vQSVIaqBLPZGwuaetk-12" value="&lt;font style=&quot;font-size: 16px;&quot;&gt;crm_sales_details&lt;/font&gt;" style="rounded=1;whiteSpace=wrap;html=1;fillColor=#ffe6cc;strokeColor=#d79b00;" vertex="1" parent="1">
          <mxGeometry x="280" y="245" width="180" height="34" as="geometry" />
        </mxCell>
        <mxCell id="L-vQSVIaqBLPZGwuaetk-20" value="" style="edgeStyle=orthogonalEdgeStyle;rounded=0;orthogonalLoop=1;jettySize=auto;html=1;entryX=0;entryY=0.5;entryDx=0;entryDy=0;" edge="1" parent="1" source="L-vQSVIaqBLPZGwuaetk-23" target="L-vQSVIaqBLPZGwuaetk-25">
          <mxGeometry relative="1" as="geometry">
            <mxPoint x="223.5" y="471" as="targetPoint" />
          </mxGeometry>
        </mxCell>
        <mxCell id="L-vQSVIaqBLPZGwuaetk-21" style="edgeStyle=orthogonalEdgeStyle;rounded=0;orthogonalLoop=1;jettySize=auto;html=1;entryX=0;entryY=0.5;entryDx=0;entryDy=0;" edge="1" parent="1" source="L-vQSVIaqBLPZGwuaetk-23" target="L-vQSVIaqBLPZGwuaetk-24">
          <mxGeometry relative="1" as="geometry" />
        </mxCell>
        <mxCell id="L-vQSVIaqBLPZGwuaetk-22" style="edgeStyle=orthogonalEdgeStyle;rounded=0;orthogonalLoop=1;jettySize=auto;html=1;entryX=0;entryY=0.5;entryDx=0;entryDy=0;" edge="1" parent="1" source="L-vQSVIaqBLPZGwuaetk-23" target="L-vQSVIaqBLPZGwuaetk-26">
          <mxGeometry relative="1" as="geometry" />
        </mxCell>
        <mxCell id="L-vQSVIaqBLPZGwuaetk-23" value="ERP" style="image;aspect=fixed;html=1;points=[];align=center;fontSize=12;image=img/lib/azure2/general/Folder_Blank.svg;" vertex="1" parent="1">
          <mxGeometry x="80" y="443" width="69" height="56.00000000000001" as="geometry" />
        </mxCell>
        <mxCell id="L-vQSVIaqBLPZGwuaetk-24" value="&lt;font style=&quot;font-size: 16px;&quot;&gt;erp_cust_az12&lt;/font&gt;" style="rounded=1;whiteSpace=wrap;html=1;fillColor=#ffe6cc;strokeColor=#d79b00;" vertex="1" parent="1">
          <mxGeometry x="280" y="410" width="180" height="34" as="geometry" />
        </mxCell>
        <mxCell id="L-vQSVIaqBLPZGwuaetk-25" value="&lt;font style=&quot;font-size: 16px;&quot;&gt;erp_loc_a101&lt;/font&gt;" style="rounded=1;whiteSpace=wrap;html=1;fillColor=#ffe6cc;strokeColor=#d79b00;" vertex="1" parent="1">
          <mxGeometry x="280" y="454" width="180" height="34" as="geometry" />
        </mxCell>
        <mxCell id="L-vQSVIaqBLPZGwuaetk-26" value="&lt;font style=&quot;font-size: 16px;&quot;&gt;erp_px_cat_g1v2&lt;/font&gt;" style="rounded=1;whiteSpace=wrap;html=1;fillColor=#ffe6cc;strokeColor=#d79b00;" vertex="1" parent="1">
          <mxGeometry x="280" y="500" width="180" height="34" as="geometry" />
        </mxCell>
        <mxCell id="L-vQSVIaqBLPZGwuaetk-27" value="&lt;b&gt;&lt;font style=&quot;font-size: 20px;&quot;&gt;Silver Layer&lt;/font&gt;&lt;/b&gt;" style="rounded=1;whiteSpace=wrap;html=1;fillColor=#f5f5f5;strokeColor=#666666;fontColor=#333333;" vertex="1" parent="1">
          <mxGeometry x="580" y="140" width="200" height="70" as="geometry" />
        </mxCell>
        <mxCell id="L-vQSVIaqBLPZGwuaetk-31" value="" style="rounded=0;whiteSpace=wrap;html=1;fillStyle=hatch;fillColor=#E7E7E7;strokeColor=#666666;opacity=80;fontColor=#333333;dashed=1;" vertex="1" parent="1">
          <mxGeometry x="580" y="220" width="200" height="360" as="geometry" />
        </mxCell>
        <mxCell id="L-vQSVIaqBLPZGwuaetk-28" value="&lt;font style=&quot;font-size: 16px;&quot;&gt;crm_cust_info&lt;/font&gt;" style="rounded=1;whiteSpace=wrap;html=1;fillColor=#f5f5f5;strokeColor=#666666;fontColor=#333333;" vertex="1" parent="1">
          <mxGeometry x="590" y="290" width="180" height="34" as="geometry" />
        </mxCell>
        <mxCell id="L-vQSVIaqBLPZGwuaetk-29" value="&lt;font style=&quot;font-size: 16px;&quot;&gt;crm_prd_info&lt;/font&gt;" style="rounded=1;whiteSpace=wrap;html=1;fillColor=#f5f5f5;strokeColor=#666666;fontColor=#333333;" vertex="1" parent="1">
          <mxGeometry x="590" y="335" width="180" height="34" as="geometry" />
        </mxCell>
        <mxCell id="L-vQSVIaqBLPZGwuaetk-30" value="&lt;font style=&quot;font-size: 16px;&quot;&gt;crm_sales_details&lt;/font&gt;" style="rounded=1;whiteSpace=wrap;html=1;fillColor=#f5f5f5;strokeColor=#666666;fontColor=#333333;" vertex="1" parent="1">
          <mxGeometry x="590" y="245" width="180" height="34" as="geometry" />
        </mxCell>
        <mxCell id="L-vQSVIaqBLPZGwuaetk-32" value="&lt;font style=&quot;font-size: 16px;&quot;&gt;erp_cust_az12&lt;/font&gt;" style="rounded=1;whiteSpace=wrap;html=1;fillColor=#f5f5f5;strokeColor=#666666;fontColor=#333333;" vertex="1" parent="1">
          <mxGeometry x="590" y="410" width="180" height="34" as="geometry" />
        </mxCell>
        <mxCell id="L-vQSVIaqBLPZGwuaetk-33" value="&lt;font style=&quot;font-size: 16px;&quot;&gt;erp_loc_a101&lt;/font&gt;" style="rounded=1;whiteSpace=wrap;html=1;fillColor=#f5f5f5;strokeColor=#666666;fontColor=#333333;" vertex="1" parent="1">
          <mxGeometry x="590" y="454" width="180" height="34" as="geometry" />
        </mxCell>
        <mxCell id="L-vQSVIaqBLPZGwuaetk-34" value="&lt;font style=&quot;font-size: 16px;&quot;&gt;erp_px_cat_g1v2&lt;/font&gt;" style="rounded=1;whiteSpace=wrap;html=1;fillColor=#f5f5f5;strokeColor=#666666;fontColor=#333333;" vertex="1" parent="1">
          <mxGeometry x="590" y="500" width="180" height="34" as="geometry" />
        </mxCell>
        <mxCell id="L-vQSVIaqBLPZGwuaetk-17" style="edgeStyle=orthogonalEdgeStyle;rounded=0;orthogonalLoop=1;jettySize=auto;html=1;entryX=0;entryY=0.5;entryDx=0;entryDy=0;" edge="1" parent="1" source="L-vQSVIaqBLPZGwuaetk-3" target="L-vQSVIaqBLPZGwuaetk-10">
          <mxGeometry relative="1" as="geometry" />
        </mxCell>
        <mxCell id="L-vQSVIaqBLPZGwuaetk-35" style="edgeStyle=orthogonalEdgeStyle;rounded=0;orthogonalLoop=1;jettySize=auto;html=1;entryX=0;entryY=0.5;entryDx=0;entryDy=0;" edge="1" parent="1" source="L-vQSVIaqBLPZGwuaetk-3" target="L-vQSVIaqBLPZGwuaetk-11">
          <mxGeometry relative="1" as="geometry" />
        </mxCell>
        <mxCell id="L-vQSVIaqBLPZGwuaetk-18" style="edgeStyle=orthogonalEdgeStyle;rounded=0;orthogonalLoop=1;jettySize=auto;html=1;entryX=0;entryY=0.5;entryDx=0;entryDy=0;" edge="1" parent="1" source="L-vQSVIaqBLPZGwuaetk-3" target="L-vQSVIaqBLPZGwuaetk-12">
          <mxGeometry relative="1" as="geometry" />
        </mxCell>
        <mxCell id="L-vQSVIaqBLPZGwuaetk-37" style="edgeStyle=orthogonalEdgeStyle;rounded=0;orthogonalLoop=1;jettySize=auto;html=1;entryX=0;entryY=0.5;entryDx=0;entryDy=0;" edge="1" parent="1" source="L-vQSVIaqBLPZGwuaetk-11" target="L-vQSVIaqBLPZGwuaetk-29">
          <mxGeometry relative="1" as="geometry">
            <mxPoint x="540" y="306" as="targetPoint" />
          </mxGeometry>
        </mxCell>
        <mxCell id="L-vQSVIaqBLPZGwuaetk-38" style="edgeStyle=orthogonalEdgeStyle;rounded=0;orthogonalLoop=1;jettySize=auto;html=1;entryX=0;entryY=0.5;entryDx=0;entryDy=0;" edge="1" parent="1" source="L-vQSVIaqBLPZGwuaetk-12" target="L-vQSVIaqBLPZGwuaetk-30">
          <mxGeometry relative="1" as="geometry">
            <mxPoint x="540" y="353" as="targetPoint" />
          </mxGeometry>
        </mxCell>
        <mxCell id="L-vQSVIaqBLPZGwuaetk-36" style="edgeStyle=orthogonalEdgeStyle;rounded=0;orthogonalLoop=1;jettySize=auto;html=1;entryX=0;entryY=0.5;entryDx=0;entryDy=0;" edge="1" parent="1" source="L-vQSVIaqBLPZGwuaetk-10" target="L-vQSVIaqBLPZGwuaetk-28">
          <mxGeometry relative="1" as="geometry" />
        </mxCell>
        <mxCell id="L-vQSVIaqBLPZGwuaetk-39" style="edgeStyle=orthogonalEdgeStyle;rounded=0;orthogonalLoop=1;jettySize=auto;html=1;" edge="1" parent="1" source="L-vQSVIaqBLPZGwuaetk-24" target="L-vQSVIaqBLPZGwuaetk-32">
          <mxGeometry relative="1" as="geometry" />
        </mxCell>
        <mxCell id="L-vQSVIaqBLPZGwuaetk-40" style="edgeStyle=orthogonalEdgeStyle;rounded=0;orthogonalLoop=1;jettySize=auto;html=1;" edge="1" parent="1" source="L-vQSVIaqBLPZGwuaetk-25" target="L-vQSVIaqBLPZGwuaetk-33">
          <mxGeometry relative="1" as="geometry" />
        </mxCell>
        <mxCell id="L-vQSVIaqBLPZGwuaetk-41" style="edgeStyle=orthogonalEdgeStyle;rounded=0;orthogonalLoop=1;jettySize=auto;html=1;" edge="1" parent="1" source="L-vQSVIaqBLPZGwuaetk-26" target="L-vQSVIaqBLPZGwuaetk-34">
          <mxGeometry relative="1" as="geometry" />
        </mxCell>
        <mxCell id="L-vQSVIaqBLPZGwuaetk-42" value="&lt;b&gt;&lt;font style=&quot;font-size: 20px;&quot;&gt;Gold Layer&lt;/font&gt;&lt;/b&gt;" style="rounded=1;whiteSpace=wrap;html=1;fillColor=#fff2cc;strokeColor=#d6b656;" vertex="1" parent="1">
          <mxGeometry x="903" y="140" width="200" height="70" as="geometry" />
        </mxCell>
        <mxCell id="L-vQSVIaqBLPZGwuaetk-43" value="" style="rounded=0;whiteSpace=wrap;html=1;fillStyle=hatch;fillColor=#fff2cc;strokeColor=#d6b656;opacity=80;dashed=1;" vertex="1" parent="1">
          <mxGeometry x="903" y="220" width="200" height="360" as="geometry" />
        </mxCell>
        <mxCell id="L-vQSVIaqBLPZGwuaetk-44" value="&lt;font style=&quot;font-size: 16px;&quot;&gt;fact_sales&lt;/font&gt;" style="rounded=1;whiteSpace=wrap;html=1;fillColor=#fff2cc;strokeColor=#d6b656;" vertex="1" parent="1">
          <mxGeometry x="913" y="292" width="180" height="34" as="geometry" />
        </mxCell>
        <mxCell id="L-vQSVIaqBLPZGwuaetk-45" value="&lt;font style=&quot;font-size: 16px;&quot;&gt;dim_customers&lt;/font&gt;" style="rounded=1;whiteSpace=wrap;html=1;fillColor=#fff2cc;strokeColor=#d6b656;" vertex="1" parent="1">
          <mxGeometry x="913" y="385" width="180" height="34" as="geometry" />
        </mxCell>
        <mxCell id="L-vQSVIaqBLPZGwuaetk-46" value="&lt;font style=&quot;font-size: 16px;&quot;&gt;dim_products&lt;/font&gt;" style="rounded=1;whiteSpace=wrap;html=1;fillColor=#fff2cc;strokeColor=#d6b656;" vertex="1" parent="1">
          <mxGeometry x="913" y="476" width="180" height="34" as="geometry" />
        </mxCell>
        <mxCell id="L-vQSVIaqBLPZGwuaetk-50" value="" style="endArrow=classic;html=1;rounded=0;exitX=1;exitY=0.5;exitDx=0;exitDy=0;entryX=0;entryY=0.5;entryDx=0;entryDy=0;jumpStyle=gap;" edge="1" parent="1" source="L-vQSVIaqBLPZGwuaetk-30" target="L-vQSVIaqBLPZGwuaetk-44">
          <mxGeometry width="50" height="50" relative="1" as="geometry">
            <mxPoint x="810" y="490" as="sourcePoint" />
            <mxPoint x="860" y="440" as="targetPoint" />
          </mxGeometry>
        </mxCell>
        <mxCell id="L-vQSVIaqBLPZGwuaetk-51" value="" style="endArrow=classic;html=1;rounded=0;exitX=1;exitY=0.5;exitDx=0;exitDy=0;entryX=0;entryY=0.25;entryDx=0;entryDy=0;jumpStyle=gap;" edge="1" parent="1" source="L-vQSVIaqBLPZGwuaetk-28" target="L-vQSVIaqBLPZGwuaetk-45">
          <mxGeometry width="50" height="50" relative="1" as="geometry">
            <mxPoint x="760" y="419" as="sourcePoint" />
            <mxPoint x="903" y="375" as="targetPoint" />
          </mxGeometry>
        </mxCell>
        <mxCell id="L-vQSVIaqBLPZGwuaetk-52" value="" style="endArrow=classic;html=1;rounded=0;exitX=1;exitY=0.5;exitDx=0;exitDy=0;entryX=0;entryY=0.5;entryDx=0;entryDy=0;jumpStyle=gap;" edge="1" parent="1" source="L-vQSVIaqBLPZGwuaetk-32" target="L-vQSVIaqBLPZGwuaetk-45">
          <mxGeometry width="50" height="50" relative="1" as="geometry">
            <mxPoint x="820" y="550" as="sourcePoint" />
            <mxPoint x="963" y="689" as="targetPoint" />
          </mxGeometry>
        </mxCell>
        <mxCell id="L-vQSVIaqBLPZGwuaetk-53" value="" style="endArrow=classic;html=1;rounded=0;exitX=1;exitY=0.5;exitDx=0;exitDy=0;entryX=0;entryY=0.75;entryDx=0;entryDy=0;jumpStyle=gap;" edge="1" parent="1" source="L-vQSVIaqBLPZGwuaetk-33" target="L-vQSVIaqBLPZGwuaetk-45">
          <mxGeometry width="50" height="50" relative="1" as="geometry">
            <mxPoint x="730" y="650" as="sourcePoint" />
            <mxPoint x="873" y="772" as="targetPoint" />
          </mxGeometry>
        </mxCell>
        <mxCell id="L-vQSVIaqBLPZGwuaetk-54" value="" style="endArrow=classic;html=1;rounded=0;exitX=1;exitY=0.5;exitDx=0;exitDy=0;entryX=0;entryY=0.75;entryDx=0;entryDy=0;jumpStyle=gap;" edge="1" parent="1" source="L-vQSVIaqBLPZGwuaetk-34" target="L-vQSVIaqBLPZGwuaetk-46">
          <mxGeometry width="50" height="50" relative="1" as="geometry">
            <mxPoint x="750" y="720.5" as="sourcePoint" />
            <mxPoint x="893" y="660.5" as="targetPoint" />
          </mxGeometry>
        </mxCell>
        <mxCell id="L-vQSVIaqBLPZGwuaetk-55" value="" style="endArrow=classic;html=1;rounded=0;exitX=1;exitY=0.5;exitDx=0;exitDy=0;entryX=0;entryY=0.5;entryDx=0;entryDy=0;jumpStyle=gap;" edge="1" parent="1" source="L-vQSVIaqBLPZGwuaetk-29" target="L-vQSVIaqBLPZGwuaetk-46">
          <mxGeometry width="50" height="50" relative="1" as="geometry">
            <mxPoint x="790" y="675.5" as="sourcePoint" />
            <mxPoint x="933" y="659.5" as="targetPoint" />
          </mxGeometry>
        </mxCell>
        <mxCell id="L-vQSVIaqBLPZGwuaetk-56" value="" style="rounded=0;whiteSpace=wrap;html=1;fillColor=none;strokeColor=none;" vertex="1" parent="1">
          <mxGeometry width="1160" height="650" as="geometry" />
        </mxCell>
      </root>
    </mxGraphModel>
  </diagram>
</mxfile>
